# xmcd
#
# Track frame offsets: 
#        150
#        6812
#        22858
#        44477
#        59826
#        83691
#        97935
#        116360
#        134906
#        153074
#        169834
#        186283
#        206323
#
# Disc length: 3000 seconds
#
# Revision: 0
# Processed by: cddbd v1.5.2PL0 Copyright (c) Steve Scherf et al.
# Submitted via: ExactAudioCopyFreeDBPlugin 1.0
#
DISCID=a30bb60d
DTITLE=Bobby V - Dusk Till Dawn
DYEAR=2012
DGENRE=R&B
TTITLE0=Dusk Till Dawn (Intro
TTITLE1=Are You Ready
TTITLE2=Mirror (feat. Lil Wayne)
TTITLE3=Before You Break My Heart
TTITLE4=Role Play (feat. Red Café)
TTITLE5=Put It In (feat. K. Michelle)
TTITLE6=Nothing On You
TTITLE7=Tipsey Love (feat. Future)
TTITLE8=Ooh (She Got Me Like)
TTITLE9=Rock Body (feat. Gucci Mane)
TTITLE10=She Got It All (feat. Cassidy)
TTITLE11=1st Class Love
TTITLE12=Save Me from Me
EXTD=
EXTT0=
EXTT1=
EXTT2=
EXTT3=
EXTT4=
EXTT5=
EXTT6=
EXTT7=
EXTT8=
EXTT9=
EXTT10=
EXTT11=
EXTT12=
PLAYORDER=
